<?xml version="1.0" encoding="utf-8"?>
<?xml-stylesheet type="text/xsl" href="rss1.xsl"?>
<rss version="2.0" xmlns:atom="http://www.w3.org/2005/Atom" xmlns:content="http://purl.org/rss/1.0/modules/content/" xmlns:dc="http://purl.org/dc/elements/1.1/" xmlns:media="http://search.yahoo.com/mrss/">
<channel>
 <title>Getty</title>
 <link>http://www.gettyimg.com/</link>
 <atom:link href="http://www.gettyimg.com/" rel="self" type="application/rss+xml" />

 
                <item>
                <title><![CDATA[【Cinema Center】SERIES - Teletubbies (2022) - Season 1 - 1080p Netflix WEB-DL DDP5.1 x264-LAZY]]></title>
                <link><![CDATA[https://sharemania.us/threads/teletubbies-2022-season-1-1080p-netflix-web-dl-ddp5-1-x264-lazy.231397/]]></link>
                <description><![CDATA[<article>
<blockquote class="messageText SelectQuoteContainer ugc baseHtml">
Teletubbies (2022):<img src="http:////cdn2.broadcasthe.net/tvdb/banners/v4/series/424506/banners/635d96b1ba8c2.jpg" class="bbCodeImage LbImage" alt="[​IMG]" data-url="http:////cdn2.broadcasthe.net/tvdb/banners/v4/series/424506/banners/635d96b1ba8c2.jpg" style=""> <br>
<br>
<div class="bbCodeBlock bbCodeQuote">
<aside>
<blockquote class="quoteContainer"><div class="quote"><i><b>Synopsis:</b></i><br>
Join colorful friends Tinky Winky, Dipsy, Laa-Laa and Po on wonder-filled adventures as they learn and grow in this 21st century refresh of the beloved preschool series, now narrated by Emmy-nominee Tituss Burgess (Unbreakable Kimmy Schmidt). Each episode includes new, original “Tummy Tales” songs that will have the entire family dancing along!</div><div class="quoteExpand">Click to expand...</div></blockquote>
</aside>
</div>
<div class="ToggleTriggerAnchor bbCodeSpoilerContainer">
<button type="button" class="button bbCodeSpoilerButton ToggleTrigger Tooltip JsOnly" data-target="> .SpoilerTarget"><span>Spoiler: <span class="SpoilerTitle">MediaInfo</span></span></button>
<div class="SpoilerTarget bbCodeSpoilerText">General<br>
Unique ID : 252322460673907784669528158875194443213 (0xBDD389CBC1CA470A29C7CC6F6A4345CD)<br>
Complete name : Teletubbies.2022.S01E01.Bubbles.1080p.NF.WEB-DL.DDP5.1.x264-LAZY.mkv<br>
Format : Matroska<br>
Format version : Version 4<br>
File size : 562 MiB<br>
Duration : 15 min 36 s<br>
Overall bit rate mode : Variable<br>
Overall bit rate : 5 034 kb/s<br>
Encoded date : UTC 2022-11-14 17:13:31<br>
Writing application : mkvmerge v71.1.0 ('Fortitude') 64-bit<br>
Writing library : libebml v1.4.4 + libmatroska v1.7.1<br>
<br>
Video<br>
ID : 1<br>
Format : AVC<br>
Format/Info : Advanced Video Codec<br>
Format profile : Main@L4<br>
Format settings : CABAC / 3 Ref Frames<br>
Format settings, CABAC : Yes<br>
Format settings, Reference frames : 3 frames<br>
Codec ID : V_MPEG4/ISO/AVC<br>
Duration : 15 min 36 s<br>
Bit rate mode : Variable<br>
Bit rate : 4 389 kb/s<br>
Nominal bit rate : 7 500 kb/s<br>
Maximum bit rate : 11.2 Mb/s<br>
Width : 1 920 pixels<br>
Height : 1 080 pixels<br>
Display aspect ratio : 16:9<br>
Frame rate mode : Constant<br>
Frame rate : 23.976 (24000/1001) FPS<br>
Color space : YUV<br>
Chroma subsampling : 4:2:0<br>
Bit depth : 8 bits<br>
Scan type : Progressive<br>
Bits/(Pixel*Frame) : 0.088<br>
Stream size : 490 MiB (87%)<br>
Writing library : x264 core 148 r2727 7d026e8<br>
Encoding settings : cabac=1 / ref=3 / deblock=1:0:0 / analyse=0x1:0x111 / me=umh / subme=10 / psy=1 / psy_rd=1.00:0.00 / mixed_ref=1 / me_range=24 / chroma_me=1 / trellis=2 / 8x8dct=0 / cqm=0 / deadzone=21,11 / fast_pskip=1 / chroma_qp_offset=-2 / threads=8 / lookahead_threads=1 / sliced_threads=0 / nr=0 / decimate=1 / interlaced=0 / bluray_compat=0 / stitchable=1 / constrained_intra=0 / bframes=2 / b_pyramid=0 / b_adapt=2 / b_bias=0 / direct=3 / weightb=1 / open_gop=0 / weightp=2 / keyint=250 / keyint_min=23 / scenecut=0 / intra_refresh=0 / rc_lookahead=48 / rc=2pass / mbtree=1 / bitrate=7500 / ratetol=1.0 / qcomp=0.50 / qpmin=6 / qpmax=51 / qpstep=4 / cplxblur=20.0 / qblur=0.5 / vbv_maxrate=11250 / vbv_bufsize=15000 / nal_hrd=vbr / filler=0 / ip_ratio=1.40 / aq=1:1.00<br>
Default : Yes<br>
Forced : No<br>
<br>
Audio<br>
ID : 2<br>
Format : E-AC-3<br>
Format/Info : Enhanced AC-3<br>
Commercial name : Dolby Digital Plus<br>
Codec ID : A_EAC3<br>
Duration : 15 min 36 s<br>
Bit rate mode : Constant<br>
Bit rate : 640 kb/s<br>
Channel(s) : 6 channels<br>
Channel layout : L R C LFE Ls Rs<br>
Sampling rate : 48.0 kHz<br>
Frame rate : 31.250 FPS (1536 SPF)<br>
Compression mode : Lossy<br>
Stream size : 71.4 MiB (13%)<br>
Language : English<br>
Service kind : Complete Main<br>
Default : Yes<br>
Forced : No<br>
<br>
Text #1<br>
ID : 3<br>
Format : UTF-8<br>
Codec ID : S_TEXT/UTF8<br>
Codec ID/Info : UTF-8 Plain Text<br>
Duration : 12 min 32 s<br>
Bit rate : 79 b/s<br>
Frame rate : 0.400 FPS<br>
Count of elements : 301<br>
Stream size : 7.30 KiB (0%)<br>
Title : SDH<br>
Language : English<br>
Default : No<br>
Forced : No<br>
<br>
Text #2<br>
ID : 4<br>
Format : UTF-8<br>
Codec ID : S_TEXT/UTF8<br>
Codec ID/Info : UTF-8 Plain Text<br>
Duration : 12 min 29 s<br>
Bit rate : 68 b/s<br>
Frame rate : 0.235 FPS<br>
Count of elements : 176<br>
Stream size : 6.31 KiB (0%)<br>
Language : Arabic<br>
Default : No<br>
Forced : No<br>
<br>
Text #3<br>
ID : 5<br>
Format : UTF-8<br>
Codec ID : S_TEXT/UTF8<br>
Codec ID/Info : UTF-8 Plain Text<br>
Duration : 12 min 29 s<br>
Bit rate : 32 b/s<br>
Frame rate : 0.236 FPS<br>
Count of elements : 177<br>
Stream size : 2.97 KiB (0%)<br>
Language : Czech<br>
Default : No<br>
Forced : No<br>
<br>
Text #4<br>
ID : 6<br>
Format : UTF-8<br>
Codec ID : S_TEXT/UTF8<br>
Codec ID/Info : UTF-8 Plain Text<br>
Duration : 12 min 29 s<br>
Bit rate : 34 b/s<br>
Frame rate : 0.216 FPS<br>
Count of elements : 162<br>
Stream size : 3.16 KiB (0%)<br>
Language : Danish<br>
Default : No<br>
Forced : No<br>
<br>
Text #5<br>
ID : 7<br>
Format : UTF-8<br>
Codec ID : S_TEXT/UTF8<br>
Codec ID/Info : UTF-8 Plain Text<br>
Duration : 12 min 28 s<br>
Bit rate : 33 b/s<br>
Frame rate : 0.239 FPS<br>
Count of elements : 179<br>
Stream size : 3.08 KiB (0%)<br>
Language : German<br>
Default : No<br>
Forced : No<br>
<br>
Text #6<br>
ID : 8<br>
Format : UTF-8<br>
Codec ID : S_TEXT/UTF8<br>
Codec ID/Info : UTF-8 Plain Text<br>
Duration : 12 min 29 s<br>
Bit rate : 65 b/s<br>
Frame rate : 0.229 FPS<br>
Count of elements : 172<br>
Stream size : 6.00 KiB (0%)<br>
Language : Greek<br>
Default : No<br>
Forced : No<br>
<br>
Text #7<br>
ID : 9<br>
Format : UTF-8<br>
Codec ID : S_TEXT/UTF8<br>
Codec ID/Info : UTF-8 Plain Text<br>
Duration : 12 min 29 s<br>
Bit rate : 33 b/s<br>
Frame rate : 0.231 FPS<br>
Count of elements : 173<br>
Stream size : 3.06 KiB (0%)<br>
Title : Latin American<br>
Language : Spanish<br>
Default : No<br>
Forced : No<br>
<br>
Text #8<br>
ID : 10<br>
Format : UTF-8<br>
Codec ID : S_TEXT/UTF8<br>
Codec ID/Info : UTF-8 Plain Text<br>
Duration : 12 min 29 s<br>
Bit rate : 33 b/s<br>
Frame rate : 0.220 FPS<br>
Count of elements : 165<br>
Stream size : 3.03 KiB (0%)<br>
Title : European<br>
Language : Spanish<br>
Default : No<br>
Forced : No<br>
<br>
Text #9<br>
ID : 11<br>
Format : UTF-8<br>
Codec ID : S_TEXT/UTF8<br>
Codec ID/Info : UTF-8 Plain Text<br>
Duration : 12 min 29 s<br>
Bit rate : 29 b/s<br>
Frame rate : 0.228 FPS<br>
Count of elements : 171<br>
Stream size : 2.66 KiB (0%)<br>
Language : Finnish<br>
Default : No<br>
Forced : No<br>
<br>
Text #10<br>
ID : 12<br>
Format : UTF-8<br>
Codec ID : S_TEXT/UTF8<br>
Codec ID/Info : UTF-8 Plain Text<br>
Duration : 12 min 29 s<br>
Bit rate : 34 b/s<br>
Frame rate : 0.231 FPS<br>
Count of elements : 173<br>
Stream size : 3.15 KiB (0%)<br>
Language : fil<br>
Default : No<br>
Forced : No<br>
<br>
Text #11<br>
ID : 13<br>
Format : UTF-8<br>
Codec ID : S_TEXT/UTF8<br>
Codec ID/Info : UTF-8 Plain Text<br>
Duration : 12 min 29 s<br>
Bit rate : 32 b/s<br>
Frame rate : 0.189 FPS<br>
Count of elements : 142<br>
Stream size : 2.99 KiB (0%)<br>
Language : French<br>
Default : No<br>
Forced : No<br>
<br>
Text #12<br>
ID : 14<br>
Format : UTF-8<br>
Codec ID : S_TEXT/UTF8<br>
Codec ID/Info : UTF-8 Plain Text<br>
Duration : 12 min 29 s<br>
Bit rate : 60 b/s<br>
Frame rate : 0.240 FPS<br>
Count of elements : 180<br>
Stream size : 5.55 KiB (0%)<br>
Language : Hebrew<br>
Default : No<br>
Forced : No<br>
<br>
Text #13<br>
ID : 15<br>
Format : UTF-8<br>
Codec ID : S_TEXT/UTF8<br>
Codec ID/Info : UTF-8 Plain Text<br>
Duration : 12 min 29 s<br>
Bit rate : 29 b/s<br>
Frame rate : 0.227 FPS<br>
Count of elements : 170<br>
Stream size : 2.71 KiB (0%)<br>
Language : Croatian<br>
Default : No<br>
Forced : No<br>
<br>
Text #14<br>
ID : 16<br>
Format : UTF-8<br>
Codec ID : S_TEXT/UTF8<br>
Codec ID/Info : UTF-8 Plain Text<br>
Duration : 12 min 29 s<br>
Bit rate : 35 b/s<br>
Frame rate : 0.225 FPS<br>
Count of elements : 169<br>
Stream size : 3.23 KiB (0%)<br>
Language : Hungarian<br>
Default : No<br>
Forced : No<br>
<br>
Text #15<br>
ID : 17<br>
Format : UTF-8<br>
Codec ID : S_TEXT/UTF8<br>
Codec ID/Info : UTF-8 Plain Text<br>
Duration : 12 min 29 s<br>
Bit rate : 31 b/s<br>
Frame rate : 0.236 FPS<br>
Count of elements : 177<br>
Stream size : 2.92 KiB (0%)<br>
Language : Indonesian<br>
Default : No<br>
Forced : No<br>
<br>
Text #16<br>
ID : 18<br>
Format : UTF-8<br>
Codec ID : S_TEXT/UTF8<br>
Codec ID/Info : UTF-8 Plain Text<br>
Duration : 12 min 29 s<br>
Bit rate : 32 b/s<br>
Frame rate : 0.228 FPS<br>
Count of elements : 171<br>
Stream size : 3.00 KiB (0%)<br>
Language : Italian<br>
Default : No<br>
Forced : No<br>
<br>
Text #17<br>
ID : 19<br>
Format : UTF-8<br>
Codec ID : S_TEXT/UTF8<br>
Codec ID/Info : UTF-8 Plain Text<br>
Duration : 12 min 20 s<br>
Bit rate : 54 b/s<br>
Frame rate : 0.216 FPS<br>
Count of elements : 160<br>
Stream size : 4.91 KiB (0%)<br>
Language : Japanese<br>
Default : No<br>
Forced : No<br>
<br>
Text #18<br>
ID : 20<br>
Format : UTF-8<br>
Codec ID : S_TEXT/UTF8<br>
Codec ID/Info : UTF-8 Plain Text<br>
Duration : 12 min 29 s<br>
Bit rate : 46 b/s<br>
Frame rate : 0.232 FPS<br>
Count of elements : 174<br>
Stream size : 4.25 KiB (0%)<br>
Language : Korean<br>
Default : No<br>
Forced : No<br>
<br>
Text #19<br>
ID : 21<br>
Format : UTF-8<br>
Codec ID : S_TEXT/UTF8<br>
Codec ID/Info : UTF-8 Plain Text<br>
Duration : 12 min 29 s<br>
Bit rate : 30 b/s<br>
Frame rate : 0.233 FPS<br>
Count of elements : 175<br>
Stream size : 2.79 KiB (0%)<br>
Language : Malay<br>
Default : No<br>
Forced : No<br>
<br>
Text #20<br>
ID : 22<br>
Format : UTF-8<br>
Codec ID : S_TEXT/UTF8<br>
Codec ID/Info : UTF-8 Plain Text<br>
Duration : 12 min 29 s<br>
Bit rate : 31 b/s<br>
Frame rate : 0.224 FPS<br>
Count of elements : 168<br>
Stream size : 2.84 KiB (0%)<br>
Language : Norwegian Bokmal<br>
Default : No<br>
Forced : No<br>
<br>
Text #21<br>
ID : 23<br>
Format : UTF-8<br>
Codec ID : S_TEXT/UTF8<br>
Codec ID/Info : UTF-8 Plain Text<br>
Duration : 12 min 29 s<br>
Bit rate : 31 b/s<br>
Frame rate : 0.209 FPS<br>
Count of elements : 157<br>
Stream size : 2.86 KiB (0%)<br>
Language : Dutch<br>
Default : No<br>
Forced : No<br>
<br>
Text #22<br>
ID : 24<br>
Format : UTF-8<br>
Codec ID : S_TEXT/UTF8<br>
Codec ID/Info : UTF-8 Plain Text<br>
Duration : 12 min 29 s<br>
Bit rate : 32 b/s<br>
Frame rate : 0.233 FPS<br>
Count of elements : 175<br>
Stream size : 2.96 KiB (0%)<br>
Language : Polish<br>
Default : No<br>
Forced : No<br>
<br>
Text #23<br>
ID : 25<br>
Format : UTF-8<br>
Codec ID : S_TEXT/UTF8<br>
Codec ID/Info : UTF-8 Plain Text<br>
Duration : 12 min 29 s<br>
Bit rate : 32 b/s<br>
Frame rate : 0.236 FPS<br>
Count of elements : 177<br>
Stream size : 3.00 KiB (0%)<br>
Title : Brazilian<br>
Language : Portuguese<br>
Default : No<br>
Forced : No<br>
<br>
Text #24<br>
ID : 26<br>
Format : UTF-8<br>
Codec ID : S_TEXT/UTF8<br>
Codec ID/Info : UTF-8 Plain Text<br>
Duration : 12 min 29 s<br>
Bit rate : 29 b/s<br>
Frame rate : 0.231 FPS<br>
Count of elements : 173<br>
Stream size : 2.66 KiB (0%)<br>
Title : European<br>
Language : Portuguese<br>
Default : No<br>
Forced : No<br>
<br>
Text #25<br>
ID : 27<br>
Format : UTF-8<br>
Codec ID : S_TEXT/UTF8<br>
Codec ID/Info : UTF-8 Plain Text<br>
Duration : 12 min 29 s<br>
Bit rate : 38 b/s<br>
Frame rate : 0.233 FPS<br>
Count of elements : 175<br>
Stream size : 3.57 KiB (0%)<br>
Language : Romanian<br>
Default : No<br>
Forced : No<br>
<br>
Text #26<br>
ID : 28<br>
Format : UTF-8<br>
Codec ID : S_TEXT/UTF8<br>
Codec ID/Info : UTF-8 Plain Text<br>
Duration : 12 min 29 s<br>
Bit rate : 55 b/s<br>
Frame rate : 0.223 FPS<br>
Count of elements : 167<br>
Stream size : 5.12 KiB (0%)<br>
Language : Russian<br>
Default : No<br>
Forced : No<br>
<br>
Text #27<br>
ID : 29<br>
Format : UTF-8<br>
Codec ID : S_TEXT/UTF8<br>
Codec ID/Info : UTF-8 Plain Text<br>
Duration : 12 min 29 s<br>
Bit rate : 32 b/s<br>
Frame rate : 0.223 FPS<br>
Count of elements : 167<br>
Stream size : 2.94 KiB (0%)<br>
Language : Swedish<br>
Default : No<br>
Forced : No<br>
<br>
Text #28<br>
ID : 30<br>
Format : UTF-8<br>
Codec ID : S_TEXT/UTF8<br>
Codec ID/Info : UTF-8 Plain Text<br>
Duration : 12 min 29 s<br>
Bit rate : 91 b/s<br>
Frame rate : 0.245 FPS<br>
Count of elements : 184<br>
Stream size : 8.34 KiB (0%)<br>
Language : Thai<br>
Default : No<br>
Forced : No<br>
<br>
Text #29<br>
ID : 31<br>
Format : UTF-8<br>
Codec ID : S_TEXT/UTF8<br>
Codec ID/Info : UTF-8 Plain Text<br>
Duration : 12 min 29 s<br>
Bit rate : 35 b/s<br>
Frame rate : 0.219 FPS<br>
Count of elements : 164<br>
Stream size : 3.23 KiB (0%)<br>
Language : Turkish<br>
Default : No<br>
Forced : No<br>
<br>
Text #30<br>
ID : 32<br>
Format : UTF-8<br>
Codec ID : S_TEXT/UTF8<br>
Codec ID/Info : UTF-8 Plain Text<br>
Duration : 12 min 29 s<br>
Bit rate : 57 b/s<br>
Frame rate : 0.237 FPS<br>
Count of elements : 178<br>
Stream size : 5.22 KiB (0%)<br>
Language : Ukrainian<br>
Default : No<br>
Forced : No<br>
<br>
Text #31<br>
ID : 33<br>
Format : UTF-8<br>
Codec ID : S_TEXT/UTF8<br>
Codec ID/Info : UTF-8 Plain Text<br>
Duration : 12 min 29 s<br>
Bit rate : 48 b/s<br>
Frame rate : 0.236 FPS<br>
Count of elements : 177<br>
Stream size : 4.42 KiB (0%)<br>
Language : Vietnamese<br>
Default : No<br>
Forced : No<br>
<br>
Text #32<br>
ID : 34<br>
Format : UTF-8<br>
Codec ID : S_TEXT/UTF8<br>
Codec ID/Info : UTF-8 Plain Text<br>
Duration : 12 min 29 s<br>
Bit rate : 39 b/s<br>
Frame rate : 0.236 FPS<br>
Count of elements : 177<br>
Stream size : 3.60 KiB (0%)<br>
Title : Simplified<br>
Language : Chinese<br>
Default : No<br>
Forced : No<br>
<br>
Text #33<br>
ID : 35<br>
Format : UTF-8<br>
Codec ID : S_TEXT/UTF8<br>
Codec ID/Info : UTF-8 Plain Text<br>
Duration : 12 min 29 s<br>
Bit rate : 36 b/s<br>
Frame rate : 0.236 FPS<br>
Count of elements : 177<br>
Stream size : 3.32 KiB (0%)<br>
Title : Traditional<br>
Language : Chinese<br>
Default : No<br>
Forced : No<br>
<br>
Menu<br>
00:00:00.000 : en<img src="styles/default/xenforo/smilies/grimace-48.png" class="mceSmilie" alt=":p" title="Stick Out Tongue    :p">art 01<br>
00:12:35.450 : en:Credits</div>
</div><br>
Screenshots:<br>
<img src="https://i.imgur.com/2OeFQSo.jpg" class="bbCodeImage LbImage" alt="[​IMG]" data-url="https://i.imgur.com/2OeFQSo.jpg" style=""> <br>
<div class="bbCodeBlock bbCodeVfcHH HiddenContent">
<div class="attribution type">Hidden Content:</div>
<blockquote>You must either reply or click 'Like' to see the hidden information contained here.</blockquote>
</div>
<div class="messageTextEndMarker">&nbsp;</div>
</blockquote>
</article>]]></description>
                <author><![CDATA[LazyRips]]></author>
                </item>

                
                <item>
                <title><![CDATA[【Cinema Center】SERIES - Strawberry Shortcake: Berry in the Big City - Season 2 - 1080p Netflix WEB-DL DDP5.1 x264-LAZY]]></title>
                <link><![CDATA[https://sharemania.us/threads/strawberry-shortcake-berry-in-the-big-city-season-2-1080p-netflix-web-dl-ddp5-1-x264-lazy.231396/]]></link>
                <description><![CDATA[<article>
<blockquote class="messageText SelectQuoteContainer ugc baseHtml">
Strawberry Shortcake: Berry in the Big City:<img src="https://i.imgur.com/BYZ3lif.jpg" class="bbCodeImage LbImage" alt="[​IMG]" data-url="https://i.imgur.com/BYZ3lif.jpg" style=""> <br>
<br>
<div class="bbCodeBlock bbCodeQuote">
<aside>
<blockquote class="quoteContainer"><div class="quote"><i><b>Synopsis:</b></i><br>
A fresh new day, sweet dreams to chase, this berry is on a mission to bake the world a better place. It's STRAWBERRY SHORTCAKE. She'll make a difference, see it through, show the world what she can do. Get ready because she is back again! The fun adventures will never end in Big Apple City. She is making friends all over town, her smile is so bright everything is much more fun when she is around. She is the very best baker and a better friend to Orange Blossom, Blueberry Muffin, Lime Chiffon and Lemon Meringue. Welcome to the new world of STRAWBERRY SHORTCAKE BERRY IN THE BIG CITY.</div><div class="quoteExpand">Click to expand...</div></blockquote>
</aside>
</div>
<div class="ToggleTriggerAnchor bbCodeSpoilerContainer">
<button type="button" class="button bbCodeSpoilerButton ToggleTrigger Tooltip JsOnly" data-target="> .SpoilerTarget"><span>Spoiler: <span class="SpoilerTitle">MediaInfo</span></span></button>
<div class="SpoilerTarget bbCodeSpoilerText">General<br>
Unique ID : 306515281607368888531051330256920874184 (0xE698B22834AF2CA719C22BF8F96B8CC8)<br>
Complete name : Strawberry.Shortcake.Berry.in.the.Big.City.S02E01E02.A.Berry.Perfect.Kind.of.Day.Part.One.-.A.Berry.Perfect.Kind.of.Day.Part.Two.1080p.NF.WEB-DL.DDP5.1.x264-LAZY.mkv<br>
Format : Matroska<br>
Format version : Version 4<br>
File size : 362 MiB<br>
Duration : 9 min 3 s<br>
Overall bit rate mode : Variable<br>
Overall bit rate : 5 585 kb/s<br>
Frame rate : 23.976 FPS<br>
Encoded date : 2023-10-16 22:56:46 UTC<br>
Writing application : mkvmerge v79.0 ('Funeral Pyres') 64-bit<br>
Writing library : libebml v1.4.4 + libmatroska v1.7.1<br>
<br>
Video<br>
ID : 1<br>
Format : AVC<br>
Format/Info : Advanced Video Codec<br>
Format profile : Main@L4<br>
Format settings : CABAC / 3 Ref Frames<br>
Format settings, CABAC : Yes<br>
Format settings, Reference frames : 3 frames<br>
Codec ID : V_MPEG4/ISO/AVC<br>
Duration : 9 min 3 s<br>
Bit rate mode : Variable<br>
Bit rate : 5 000 kb/s<br>
Maximum bit rate : 7 500 kb/s<br>
Width : 1 920 pixels<br>
Height : 1 080 pixels<br>
Display aspect ratio : 16:9<br>
Frame rate mode : Constant<br>
Frame rate : 23.976 (24000/1001) FPS<br>
Color space : YUV<br>
Chroma subsampling : 4:2:0<br>
Bit depth : 8 bits<br>
Scan type : Progressive<br>
Bits/(Pixel*Frame) : 0.101<br>
Stream size : 320 MiB (89%)<br>
Writing library : x264 core 148 r2727 7d026e8<br>
Encoding settings : cabac=1 / ref=3 / deblock=1:0:0 / analyse=0x1:0x111 / me=umh / subme=10 / psy=1 / psy_rd=1.00:0.00 / mixed_ref=1 / me_range=24 / chroma_me=1 / trellis=2 / 8x8dct=0 / cqm=0 / deadzone=21,11 / fast_pskip=1 / chroma_qp_offset=-2 / threads=6 / lookahead_threads=1 / sliced_threads=0 / nr=0 / decimate=1 / interlaced=0 / bluray_compat=0 / stitchable=1 / constrained_intra=0 / bframes=2 / b_pyramid=0 / b_adapt=2 / b_bias=0 / direct=3 / weightb=1 / open_gop=0 / weightp=2 / keyint=240 / keyint_min=121 / scenecut=0 / intra_refresh=0 / rc_lookahead=48 / rc=2pass / mbtree=1 / bitrate=5000 / ratetol=1.0 / qcomp=0.50 / qpmin=6 / qpmax=51 / qpstep=4 / cplxblur=20.0 / qblur=0.5 / vbv_maxrate=7500 / vbv_bufsize=10000 / nal_hrd=vbr / filler=0 / ip_ratio=1.40 / aq=1:1.00<br>
Default : Yes<br>
Forced : No<br>
<br>
Audio<br>
ID : 2<br>
Format : E-AC-3<br>
Format/Info : Enhanced AC-3<br>
Commercial name : Dolby Digital Plus<br>
Codec ID : A_EAC3<br>
Duration : 9 min 3 s<br>
Bit rate mode : Constant<br>
Bit rate : 640 kb/s<br>
Channel(s) : 6 channels<br>
Channel layout : L R C LFE Ls Rs<br>
Sampling rate : 48.0 kHz<br>
Frame rate : 31.250 FPS (1536 SPF)<br>
Compression mode : Lossy<br>
Stream size : 41.5 MiB (11%)<br>
Language : English<br>
Service kind : Complete Main<br>
Default : Yes<br>
Forced : No<br>
<br>
Text<br>
ID : 3<br>
Format : UTF-8<br>
Codec ID : S_TEXT/UTF8<br>
Codec ID/Info : UTF-8 Plain Text<br>
Duration : 8 min 29 s<br>
Bit rate : 103 b/s<br>
Frame rate : 0.310 FPS<br>
Count of elements : 158<br>
Stream size : 6.45 KiB (0%)<br>
Title : SDH<br>
Language : English<br>
Default : No<br>
Forced : No<br>
<br>
Menu<br>
00:00:00.000 : en<img src="styles/default/xenforo/smilies/grimace-48.png" class="mceSmilie" alt=":p" title="Stick Out Tongue    :p">art 01<br>
00:08:30.450 : en:Credits</div>
</div>Screenshots:<br>
<img src="https://i.imgur.com/IK5Ffly.jpg" class="bbCodeImage LbImage" alt="[​IMG]" data-url="https://i.imgur.com/IK5Ffly.jpg" style=""> <br>
<div class="bbCodeBlock bbCodeVfcHH HiddenContent">
<div class="attribution type">Hidden Content:</div>
<blockquote>You must either reply or click 'Like' to see the hidden information contained here.</blockquote>
</div>
<div class="messageTextEndMarker">&nbsp;</div>
</blockquote>
</article>]]></description>
                <author><![CDATA[LazyRips]]></author>
                </item>

                </channel></rss>